<?xml version="1.0" encoding="UTF-8"?>
<svg version="1.1" xmlns="http://www.w3.org/2000/svg" width="545" height="546">
<path d="M0 0 C179.85 0 359.7 0 545 0 C545 180.18 545 360.36 545 546 C365.15 546 185.3 546 0 546 C0 365.82 0 185.64 0 0 Z " fill="#FDFDFD" transform="translate(0,0)"/>
<path d="M0 0 C2.61245652 0.02366974 5.22388815 0.02051704 7.83642578 0.01391602 C23.43796834 0.03927664 38.80815636 1.18414663 53.92626953 5.22680664 C56.64994568 5.95059836 59.37723491 6.64715449 62.11376953 7.32055664 C94.4214711 15.66723414 124.02403859 34.67193196 147.6171875 57.87036133 C148.87085884 59.09826389 150.14787177 60.30227379 151.43017578 61.50024414 C186.37692758 94.68200847 205.87617874 146.07407507 207.43017578 193.50024414 C208.32845999 249.3688555 188.72845012 301.14332921 150.03173828 341.63696289 C141.90663 350.00472147 133.67717077 357.64411637 124.11376953 364.33618164 C123.53981445 364.74384766 122.96585937 365.15151367 122.37451172 365.5715332 C101.19223225 380.54739329 76.73604573 391.95214952 51.30126953 397.39868164 C50.12624878 397.65355347 50.12624878 397.65355347 48.92749023 397.91357422 C24.60136399 403.11971015 -1.29043108 404.68102336 -25.88623047 400.33618164 C-26.61729004 400.21791016 -27.34834961 400.09963867 -28.1015625 399.9777832 C-68.03624844 393.45885005 -104.25545043 374.61207967 -133.40673828 346.74829102 C-134.38787887 345.81183604 -135.37418294 344.88075933 -136.36572266 343.95532227 C-154.32110622 327.1717139 -167.49171235 306.46345064 -177.88623047 284.33618164 C-178.19157715 283.70276855 -178.49692383 283.06935547 -178.81152344 282.41674805 C-191.18939533 256.63667423 -195.70758586 228.61679603 -195.51123047 200.21118164 C-195.50858185 199.1485611 -195.50593323 198.08594055 -195.50320435 196.99111938 C-195.42148646 179.4418333 -193.99555708 163.21696839 -188.88623047 146.33618164 C-188.60827637 145.40193359 -188.33032227 144.46768555 -188.04394531 143.50512695 C-186.25752973 137.66761897 -184.17952299 131.99182953 -181.88623047 126.33618164 C-181.59022949 125.58900879 -181.29422852 124.84183594 -180.98925781 124.07202148 C-160.48113161 72.8958816 -118.71106857 35.13181621 -68.88623047 13.33618164 C-46.95358507 4.26589515 -23.68728935 -0.22831656 0 0 Z " fill="#245702" transform="translate(262.88623046875,68.663818359375)"/>
<path d="M0 0 C9.51923704 7.7599061 12.05311324 17.32873709 14.92871094 28.87548828 C16.21713817 33.87543015 17.65024963 38.83635933 19.0546875 43.8046875 C20.97514655 50.62675981 22.87818726 57.45019876 24.6796875 64.3046875 C26.02052878 69.39988438 27.47780584 74.44695737 28.9921875 79.4921875 C30.88485356 85.80544038 32.55124295 92.15287956 34.1171875 98.5546875 C35.74147439 105.19086195 37.52087091 111.72783126 39.58984375 118.2421875 C43.50708356 130.67585556 46.76964599 143.31871365 50 155.9453125 C50.51785976 157.96103244 51.03609395 159.97665622 51.5546875 161.9921875 C51.81056641 162.9915332 52.06644531 163.99087891 52.33007812 165.02050781 C53.65210936 170.11083524 55.09822457 175.05632995 56.9296875 179.9921875 C59.94076542 188.70913158 59.51819343 196.76102997 55.68359375 205.125 C50.69847127 214.75025378 43.76918974 220.38576484 33.453125 223.69140625 C21.70873487 227.16777677 10.11308132 230.02987322 -1.4453125 224.3046875 C-12.55562421 217.73671318 -17.00050924 208.18815179 -20.32421875 196.11108398 C-21.18300894 192.70238243 -22.00723619 189.28707157 -22.8203125 185.8671875 C-25.04332305 176.74795459 -27.41028309 167.72403575 -30.1730957 158.75439453 C-35.40796225 141.7441127 -39.98929653 124.53324695 -44.4453125 107.3046875 C-44.86490234 108.93664062 -44.86490234 108.93664062 -45.29296875 110.6015625 C-49.54116687 126.45088768 -56.02335011 139.46972048 -70.2578125 148.6171875 C-71.96676787 149.55100025 -73.69674375 150.44734157 -75.4453125 151.3046875 C-76.27933594 151.71847656 -77.11335937 152.13226563 -77.97265625 152.55859375 C-89.49832153 157.30445592 -104.95880813 157.44672406 -116.6953125 153.2421875 C-131.50308548 146.37957731 -141.9932646 135.95590675 -147.6953125 120.6171875 C-149.10056175 116.55552411 -150.28226485 112.4416684 -151.4453125 108.3046875 C-152.19794128 110.8247601 -152.94739948 113.34571465 -153.6953125 115.8671875 C-153.90027344 116.55232422 -154.10523438 117.23746094 -154.31640625 117.94335938 C-155.92563977 123.38061808 -157.40418395 128.84832517 -158.85641479 134.32948303 C-160.08174473 138.95193483 -161.329429 143.56775259 -162.59375 148.1796875 C-162.77412308 148.8381366 -162.95449615 149.49658569 -163.14033508 150.17498779 C-163.51043929 151.525748 -163.88062341 152.8764863 -164.25088501 154.22720337 C-167.15964716 164.83945395 -170.02198038 175.45872956 -172.7578125 186.1171875 C-179.95552409 213.83439528 -179.95552409 213.83439528 -191.22265625 222.015625 C-200.66095693 227.48950764 -210.55351201 227.821568 -220.984375 225.3203125 C-232.29182494 222.26617076 -243.28104107 218.67706695 -249.734375 208.21484375 C-255.96205863 196.18510955 -253.59544929 183.86432796 -250.1953125 171.2421875 C-249.89496094 170.06591797 -249.59460938 168.88964844 -249.28515625 167.67773438 C-247.55318971 161.01150573 -245.55436668 154.49000527 -243.32910156 147.97338867 C-242.18109958 144.50686666 -241.29273549 141.04455443 -240.4453125 137.4921875 C-240.11159261 136.11956875 -239.77693467 134.74717778 -239.44140625 133.375 C-239.19366455 132.35647949 -239.19366455 132.35647949 -238.94091797 131.31738281 C-236.8723025 122.91656216 -234.55028181 114.59179601 -232.0703125 106.3046875 C-229.74393083 98.5287003 -227.70105017 90.69011646 -225.68066406 82.82983398 C-224.16685819 76.9738211 -222.563013 71.15904416 -220.8203125 65.3671875 C-218.61874956 58.04601369 -216.746874 50.66878237 -214.92480469 43.24560547 C-205.70698174 5.93313479 -205.70698174 5.93313479 -191.4453125 -2.6953125 C-181.46788348 -7.78013184 -167.52599984 -5.13947162 -157.30444336 -1.88964844 C-146.66840976 1.78514327 -139.47995173 6.61365647 -134.1953125 16.6875 C-128.93890166 28.33191013 -132.17633219 38.08729178 -135.67041016 49.71337891 C-136.789244 53.45481004 -137.86721319 57.20763016 -138.94287109 60.96166992 C-139.47958822 62.83406984 -140.02018229 64.70536346 -140.56494141 66.57543945 C-140.81034668 67.42452881 -141.05575195 68.27361816 -141.30859375 69.1484375 C-141.52813721 69.90318359 -141.74768066 70.65792969 -141.97387695 71.43554688 C-142.526833 73.30661928 -142.526833 73.30661928 -142.4453125 75.3046875 C-141.671875 74.03625 -141.671875 74.03625 -140.8828125 72.7421875 C-133.87819686 62.38119353 -123.23952271 55.29034153 -111.2421875 51.9609375 C-96.59658744 49.42959922 -82.66395782 50.46647493 -69.96875 58.49609375 C-63.66591985 63.01344725 -58.17341085 68.16247754 -53.4453125 74.3046875 C-53.73664063 73.34433594 -54.02796875 72.38398438 -54.328125 71.39453125 C-55.73679707 66.70826736 -57.09976616 62.00943648 -58.4453125 57.3046875 C-58.71778809 56.35255371 -58.99026367 55.40041992 -59.27099609 54.41943359 C-60.11725285 51.42736405 -60.94026807 48.42971798 -61.7578125 45.4296875 C-62.02416504 44.4924585 -62.29051758 43.55522949 -62.56494141 42.58959961 C-65.41664146 31.94019444 -65.69894824 22.0451471 -60.296875 12.21484375 C-53.03270225 1.27659518 -41.47698023 -2.18776069 -29.26953125 -4.8125 C-18.34235208 -6.93045005 -9.33609786 -6.47263015 0 0 Z " fill="#C0FE71" transform="translate(366.4453125,146.6953125)"/>
<path d="M0 0 C5.13400046 3.178587 6.95860734 7.30082533 9.3125 12.625 C9.67150391 13.40101562 10.03050781 14.17703125 10.40039062 14.9765625 C13 20.68084821 13 20.68084821 13 23 C11.0625 23.5625 11.0625 23.5625 9 24 C8.67 23.67 8.34 23.34 8 23 C7.2575 23.78375 6.515 24.5675 5.75 25.375 C1.75303644 29.1902834 1.75303644 29.1902834 -1 30 C-4.75 29.625 -4.75 29.625 -8 29 C-8.33 30.65 -8.66 32.3 -9 34 C-11.08203125 34.40234375 -11.08203125 34.40234375 -14 34 C-16.50272269 32.1177997 -18.56586026 29.85713868 -20.6875 27.5625 C-21.83526392 26.35358994 -22.98491733 25.14647016 -24.13671875 23.94140625 C-24.63905029 23.40201416 -25.14138184 22.86262207 -25.65893555 22.30688477 C-26.98776085 20.87947089 -26.98776085 20.87947089 -29 20 C-28.81824219 20.55985596 -28.63648438 21.11971191 -28.44921875 21.6965332 C-27.62829897 24.23375418 -26.81408209 26.77307728 -26 29.3125 C-25.57074219 30.63411133 -25.57074219 30.63411133 -25.1328125 31.98242188 C-24.86210937 32.82998047 -24.59140625 33.67753906 -24.3125 34.55078125 C-24.06113281 35.33106689 -23.80976563 36.11135254 -23.55078125 36.9152832 C-23 39 -23 39 -23 42 C-25.24365234 42.70385742 -25.24365234 42.70385742 -28 43 C-30.08056641 41.70825195 -30.08056641 41.70825195 -32.1015625 39.73828125 C-32.83890625 39.03123047 -33.57625 38.32417969 -34.3359375 37.59570312 C-35.46902344 36.46551758 -35.46902344 36.46551758 -36.625 35.3125 C-37.388125 34.57837891 -38.15125 33.84425781 -38.9375 33.08789062 C-42.24294771 29.87812693 -45.30694685 26.74951045 -48 23 C-47.34 23 -46.68 23 -46 23 C-46 22.34 -46 21.68 -46 21 C-41.95864413 22.59930434 -39.32092848 25.48660409 -36.375 28.5625 C-33.03597098 32.22714016 -33.03597098 32.22714016 -29 35 C-29.3609375 33.90300781 -29.721875 32.80601563 -30.09375 31.67578125 C-30.56288046 30.22147684 -31.03160935 28.76704285 -31.5 27.3125 C-31.73847656 26.59126953 -31.97695312 25.87003906 -32.22265625 25.12695312 C-33.44398994 21.30592343 -34.32075577 18.06557944 -34 14 C-31.92578125 13.09765625 -31.92578125 13.09765625 -29 13 C-26.39256366 14.81607433 -24.33221184 17.10629147 -22.1875 19.4375 C-21.2912793 20.37432617 -21.2912793 20.37432617 -20.37695312 21.33007812 C-18.90411257 22.87361502 -17.45018529 24.43515877 -16 26 C-16.48267673 22.35165969 -17.00877103 18.97059126 -18.0625 15.4375 C-18.97051692 12.10810461 -19.16721405 9.42788808 -19 6 C-18.154375 5.7525 -17.30875 5.505 -16.4375 5.25 C-13.73960175 4.26894609 -11.87367613 3.36581663 -9.5 1.875 C-5.80093572 -0.10664158 -4.10115147 -0.71324373 0 0 Z " fill="#1C1C1C" transform="translate(161,28)"/>
<path d="M0 0 C1.32 0.99 2.64 1.98 4 3 C3.67 3.33 3.34 3.66 3 4 C4.0725 4.2475 5.145 4.495 6.25 4.75 C10.1331085 6.0443695 11.7131506 6.65768165 14 10 C14.61105304 12.70313293 14.81448249 15.2172373 15 18 C15.4125 17.484375 15.825 16.96875 16.25 16.4375 C16.8275 15.963125 17.405 15.48875 18 15 C20.1875 15.3125 20.1875 15.3125 22 16 C21.30908755 23.42730885 19.34107163 31.31785674 16 38 C16.73605469 37.39671875 17.47210938 36.7934375 18.23046875 36.171875 C19.20628906 35.37265625 20.18210938 34.5734375 21.1875 33.75 C22.15042969 32.96109375 23.11335938 32.1721875 24.10546875 31.359375 C25.06066406 30.58078125 26.01585937 29.8021875 27 29 C27.8971875 28.236875 28.794375 27.47375 29.71875 26.6875 C32 25 32 25 34.3125 25.25 C34.869375 25.4975 35.42625 25.745 36 26 C35.42063175 32.33638191 33.93337939 37.97068452 31.9375 44 C31.65583984 44.87011719 31.37417969 45.74023438 31.08398438 46.63671875 C30.39567574 48.75997589 29.70093339 50.88088417 29 53 C27.68 52.67 26.36 52.34 25 52 C26.23416987 45.17576662 27.8915995 38.60632156 30 32 C29.04738281 32.87785156 28.09476563 33.75570312 27.11328125 34.66015625 C25.8470634 35.79506262 24.58009691 36.92913413 23.3125 38.0625 C22.68666016 38.64322266 22.06082031 39.22394531 21.41601562 39.82226562 C16.66182728 44.02885112 16.66182728 44.02885112 13.04296875 43.87109375 C12.36878906 43.58363281 11.69460937 43.29617188 11 43 C11.67069152 38.41105799 12.76122296 34.07452793 14.0625 29.625 C14.42472656 28.37976563 14.78695312 27.13453125 15.16015625 25.8515625 C15.57587891 24.44003906 15.57587891 24.44003906 16 23 C15.11957031 23.78246094 14.23914063 24.56492187 13.33203125 25.37109375 C12.15928749 26.39372631 10.9860862 27.41583434 9.8125 28.4375 C8.9452832 29.2119043 8.9452832 29.2119043 8.06054688 30.00195312 C4.79868683 32.82152706 2.4693133 34.67174535 -2 35 C-2.495 33.515 -2.495 33.515 -3 32 C-4.73082104 31.02028998 -6.4632776 30.04309612 -8.2109375 29.09375 C-11.86126536 26.86210851 -13.65949357 24.36202571 -14.6875 20.25 C-13.60456247 15.13065893 -10.38034008 11.88282306 -7 8 C-6.33226563 7.22269531 -5.66453125 6.44539063 -4.9765625 5.64453125 C-3.3326459 3.74899476 -1.67479869 1.86824048 0 0 Z " fill="#181818" transform="translate(102,445)"/>
<path d="M0 0 C0.91330078 0.00451172 1.82660156 0.00902344 2.76757812 0.01367188 C4.99095738 0.0253126 7.21419121 0.04166149 9.4375 0.0625 C9.1075 1.3825 8.7775 2.7025 8.4375 4.0625 C-1.4625 4.5575 -1.4625 4.5575 -11.5625 5.0625 C-7.09089891 7.60643698 -7.09089891 7.60643698 -2.61791992 10.14794922 C0.12837209 11.71376557 2.8060291 13.30818606 5.4375 15.0625 C4.9425 17.5375 4.9425 17.5375 4.4375 20.0625 C-2.4925 20.0625 -9.4225 20.0625 -16.5625 20.0625 C-16.5625 20.7225 -16.5625 21.3825 -16.5625 22.0625 C-15.53576172 22.44535156 -15.53576172 22.44535156 -14.48828125 22.8359375 C-11.11288274 24.25099108 -7.96275962 25.93508566 -4.75 27.6875 C-4.15251953 28.01234375 -3.55503906 28.3371875 -2.93945312 28.671875 C-1.47912865 29.46629151 -0.02062509 30.26405376 1.4375 31.0625 C1.4375 32.7125 1.4375 34.3625 1.4375 36.0625 C0.7775 36.0625 0.1175 36.0625 -0.5625 36.0625 C-0.583125 37.0525 -0.60375 38.0425 -0.625 39.0625 C-1.26160475 43.50963888 -3.6559091 46.19845168 -6.48046875 49.55859375 C-9.40519516 51.671201 -10.99445212 51.4872676 -14.5625 51.0625 C-17.40764059 50.3442302 -20.12646893 49.39788372 -22.875 48.375 C-23.60267578 48.13072266 -24.33035156 47.88644531 -25.08007812 47.63476562 C-27.17578125 46.86328125 -27.17578125 46.86328125 -30.5625 45.0625 C-31.54296875 42.35546875 -31.54296875 42.35546875 -31.5625 40.0625 C-28.95667629 39.13184867 -27.92051776 38.91332593 -25.3125 40 C-24.44625 40.5259375 -24.44625 40.5259375 -23.5625 41.0625 C-23.5625 41.7225 -23.5625 42.3825 -23.5625 43.0625 C-21.5825 43.3925 -19.6025 43.7225 -17.5625 44.0625 C-17.5625 41.7525 -17.5625 39.4425 -17.5625 37.0625 C-16.0775 36.5675 -16.0775 36.5675 -14.5625 36.0625 C-14.5625 39.3625 -14.5625 42.6625 -14.5625 46.0625 C-12.21078869 45.46388258 -9.8765622 44.79325648 -7.5625 44.0625 C-6.24020811 41.41791621 -6.46572806 39.38488699 -6.5 36.4375 C-6.50902344 35.43460937 -6.51804687 34.43171875 -6.52734375 33.3984375 C-6.53894531 32.62757813 -6.55054688 31.85671875 -6.5625 31.0625 C-7.32691406 30.77246094 -8.09132813 30.48242188 -8.87890625 30.18359375 C-12.07854875 28.84691632 -14.68893075 26.99776092 -17.5625 25.0625 C-19.54757948 24.03319953 -21.54364251 23.02386071 -23.5625 22.0625 C-23.5625 20.4125 -23.5625 18.7625 -23.5625 17.0625 C-16.3025 17.0625 -9.0425 17.0625 -1.5625 17.0625 C-1.5625 16.4025 -1.5625 15.7425 -1.5625 15.0625 C-2.51125 14.753125 -3.46 14.44375 -4.4375 14.125 C-7.5625 13.0625 -7.5625 13.0625 -9.5625 12.0625 C-9.5625 11.4025 -9.5625 10.7425 -9.5625 10.0625 C-10.26375 9.98 -10.965 9.8975 -11.6875 9.8125 C-15.21522947 8.89222275 -17.62361614 7.18123023 -20.5625 5.0625 C-20.2325 3.7425 -19.9025 2.4225 -19.5625 1.0625 C-12.99550475 0.21406826 -6.61699407 -0.06311146 0 0 Z " fill="#161616" transform="translate(517.5625,315.9375)"/>
<path d="M0 0 C4.18054849 0.69295066 6.41304417 2.68329144 9.45703125 5.48046875 C11.83496125 9.5317569 11.90039041 12.76686923 11.14453125 17.35546875 C9.83031375 21.41056768 8.12843981 24.42943717 5.01953125 27.35546875 C0.68768445 28.86219807 -3.33008906 29.15187603 -7.85546875 28.35546875 C-11.61588036 25.61350195 -13.67684385 22.85567292 -14.85546875 18.35546875 C-15.47001552 11.59545431 -13.68933974 7.83658832 -9.73046875 2.48046875 C-6.23709038 -0.10159352 -4.24148539 -0.26025698 0 0 Z " fill="#1F1F1F" transform="translate(224.85546875,501.64453125)"/>
<path d="M0 0 C2.6214994 0.9884342 4.7497565 2.34508791 7 4 C8.4540625 5.051875 8.4540625 5.051875 9.9375 6.125 C12.54611158 9.76124644 12.71508558 12.15963452 12.4921875 16.55859375 C11.55312173 21.21665808 8.91534372 23.59541461 5.125 26.375 C1.15696224 27.54206993 -2.22819203 27.77164721 -6.08984375 26.08984375 C-10.60351809 23.47577909 -13.73407959 20.81508087 -16 16 C-16.6639638 11.81702808 -16.98476362 9.56121061 -14.71875 5.96875 C-10.32865562 0.7178528 -7.00852244 -0.9141551 0 0 Z " fill="#1A1A1A" transform="translate(58,113)"/>
<path d="M0 0 C4.89434784 2.40100083 7.15529383 4.8758162 9 10 C9.625 12.875 9.625 12.875 9 16 C6.17347779 20.02496763 3.09223933 23.27184045 -1 26 C-5.78062697 26.77952503 -10.80365076 27.25794588 -15.12109375 24.78515625 C-18.36245272 21.48161293 -19.39121871 18.46811471 -19.625 13.875 C-19.40344988 10.6255983 -19.01911775 9.03517665 -17.4375 6.125 C-11.66703028 1.09433409 -7.59393821 -0.96430961 0 0 Z " fill="#191919" transform="translate(476,113)"/>
<path d="M0 0 C3.73221469 2.22025911 6.08794316 3.88255464 7.703125 8.0234375 C8.15607555 13.00589354 7.8776303 16.08267231 4.703125 20.0234375 C0.11145033 23.82796794 -1.61025035 23.0234375 -8.296875 23.0234375 C-8.296875 16.7534375 -8.296875 10.4834375 -8.296875 4.0234375 C-14.01951022 5.303556 -14.01951022 5.303556 -15.671875 7.8359375 C-16.74636576 11.59665516 -16.52847959 14.32862373 -15.296875 18.0234375 C-14.636875 18.0234375 -13.976875 18.0234375 -13.296875 18.0234375 C-13.626875 19.6734375 -13.956875 21.3234375 -14.296875 23.0234375 C-17.31261771 21.98352622 -18.27678551 21.05428921 -20.046875 18.3359375 C-21.69248864 13.97506136 -22.0187691 10.32037327 -20.609375 5.8359375 C-15.76588287 -0.85269449 -7.62704807 -3.24279255 0 0 Z " fill="#191919" transform="translate(523.296875,264.9765625)"/>
<path d="M0 0 C0.67933594 0.28488281 1.35867188 0.56976563 2.05859375 0.86328125 C4.45976101 2.04032402 6.14501487 3.06324059 8 5 C9.18167603 8.70441695 9.52269144 12.1458686 9 16 C7.6875 18.32421875 7.6875 18.32421875 6 20 C2.8125 20.25 2.8125 20.25 0 20 C-0.33 17.03 -0.66 14.06 -1 11 C-1.66 11 -2.32 11 -3 11 C-3 13.31 -3 15.62 -3 18 C-5.9375 17.625 -5.9375 17.625 -9 17 C-9.33 16.34 -9.66 15.68 -10 15 C-10.99 15 -11.98 15 -13 15 C-15.27676715 11.58484928 -15.16825377 9.97659067 -14.5390625 6.00390625 C-13.7059844 2.90702897 -12.34477199 1.14937433 -10 -1 C-6.00829331 -2.5352718 -3.7338052 -1.91031894 0 0 Z " fill="#1F1F1F" transform="translate(503,342)"/>
<path d="M0 0 C0 1.32 0 2.64 0 4 C-4.29 4.66 -8.58 5.32 -13 6 C-12.01 6.66 -11.02 7.32 -10 8 C-8.75878574 11.72364279 -8.35211131 15.13608553 -9 19 C-12.31224745 23.34018631 -16.85874314 23.89849894 -21.99609375 24.6953125 C-26.67285818 25.16967872 -31.30619073 25.16342083 -36 25 C-36 23.35 -36 21.7 -36 20 C-35.40985107 19.94465088 -34.81970215 19.88930176 -34.21166992 19.83227539 C-31.53658792 19.57932313 -28.86205397 19.320973 -26.1875 19.0625 C-25.25873047 18.97548828 -24.32996094 18.88847656 -23.37304688 18.79882812 C-22.48037109 18.71181641 -21.58769531 18.62480469 -20.66796875 18.53515625 C-19.84578857 18.456604 -19.0236084 18.37805176 -18.17651367 18.29711914 C-15.82512578 18.04448955 -15.82512578 18.04448955 -13 17 C-13.103125 15.72125 -13.20625 14.4425 -13.3125 13.125 C-13.37050781 12.40570313 -13.42851563 11.68640625 -13.48828125 10.9453125 C-13.87393036 8.60480784 -13.87393036 8.60480784 -17 7 C-19.32266082 6.72487581 -19.32266082 6.72487581 -21.88671875 6.8046875 C-22.82451172 6.81113281 -23.76230469 6.81757813 -24.72851562 6.82421875 C-25.70498047 6.84097656 -26.68144531 6.85773438 -27.6875 6.875 C-29.16959961 6.88853516 -29.16959961 6.88853516 -30.68164062 6.90234375 C-33.12133765 6.9259157 -35.56054697 6.95881978 -38 7 C-38 5.35 -38 3.7 -38 2 C-34.0350371 1.71105222 -30.06978953 1.42640631 -26.10424805 1.14550781 C-24.10254363 1.00285376 -22.10107316 0.85692894 -20.09960938 0.7109375 C-13.38054364 0.23704873 -6.73570123 -0.11829991 0 0 Z " fill="#232323" transform="translate(539,237)"/>
<path d="M0 0 C1.65 0.33 3.3 0.66 5 1 C4.566875 2.16917969 4.13375 3.33835937 3.6875 4.54296875 C3.12458179 6.09099382 2.56210493 7.63917943 2 9.1875 C1.71382812 9.95642578 1.42765625 10.72535156 1.1328125 11.51757812 C-0.94408794 17.1072232 -0.94408794 17.1072232 -1 23 C0.93403873 25.30986777 0.93403873 25.30986777 4.3125 25.625 C7.88407133 25.38072154 7.88407133 25.38072154 9.4296875 23.59765625 C12.97698872 18.21060564 14.99560844 12.09155871 17 6 C18.32 6.33 19.64 6.66 21 7 C20.31463317 11.40834714 18.76495539 15.34262529 17.0625 19.4375 C15.21747367 23.91314781 13.47612911 28.38620515 12 33 C10.68 32.67 9.36 32.34 8 32 C8 31.01 8 30.02 8 29 C7.34 29.33 6.68 29.66 6 30 C3.6670134 30.04022391 1.33293334 30.04320247 -1 30 C-1 29.34 -1 28.68 -1 28 C-1.61875 27.731875 -2.2375 27.46375 -2.875 27.1875 C-5 26 -5 26 -7 23 C-6.72653085 17.43946067 -5.619605 13.93694788 -3 9 C-1.91711279 6.02573514 -0.94633253 3.0202102 0 0 Z " fill="#1E1E1E" transform="translate(165,486)"/>
<path d="M0 0 C2.52734375 1.72265625 2.52734375 1.72265625 4.9375 4.0625 C5.78957031 4.8771875 6.64164063 5.691875 7.51953125 6.53125 C8.33808594 7.3459375 9.15664062 8.160625 10 9 C10.72574219 9.7115625 11.45148438 10.423125 12.19921875 11.15625 C13.81551539 12.75615418 15.4157082 14.36849421 17 16 C16.505 17.485 16.505 17.485 16 19 C10.72252968 18.04604464 8.00813641 14.05903859 4.59765625 10.21679688 C1.91643389 7.36071218 0.72977381 6.11112863 -3.2578125 5.50390625 C-6.13545872 5.75550449 -6.13545872 5.75550449 -8 8 C-8.52596905 11.3571618 -8.73856616 13.83389316 -6.8671875 16.78857422 C-5.3172842 18.59459701 -3.69891202 20.27111219 -2 21.9375 C-1.42765625 22.52595703 -0.8553125 23.11441406 -0.265625 23.72070312 C1.14084112 25.1623309 2.56840784 26.58332026 4 28 C3.67 28.99 3.34 29.98 3 31 C-1.33236775 30.52201576 -3.41626544 27.95010508 -6.375 24.9375 C-6.85815674 24.44596436 -7.34131348 23.95442871 -7.83911133 23.44799805 C-11.59787528 19.56299517 -14.96028542 15.47620417 -18 11 C-16.68 10.34 -15.36 9.68 -14 9 C-13.67 9.66 -13.34 10.32 -13 11 C-12.773125 9.9275 -12.54625 8.855 -12.3125 7.75 C-10.06717491 1.33478545 -6.69063054 -0.74988387 0 0 Z " fill="#161616" transform="translate(92,72)"/>
<path d="M0 0 C-0.268125 0.721875 -0.53625 1.44375 -0.8125 2.1875 C-1.34734844 5.24871216 -1.34734844 5.24871216 1.375 7.75 C2.24125 8.4925 3.1075 9.235 4 10 C5.56918492 11.56918492 5.28258943 13.14085159 5.375 15.3125 C5.42398437 16.09238281 5.47296875 16.87226563 5.5234375 17.67578125 C4.73690646 21.16821387 2.94722317 22.06415637 0 24 C-2.29489765 25.18197853 -4.63222893 26.28425459 -7 27.3125 C-8.794375 28.11107422 -8.794375 28.11107422 -10.625 28.92578125 C-14.04922053 30.01566626 -15.63625371 30.0893951 -19 29 C-18.67 28.01 -18.34 27.02 -18 26 C-15.234375 24.68359375 -15.234375 24.68359375 -11.75 23.4375 C-10.61046875 23.02371094 -9.4709375 22.60992187 -8.296875 22.18359375 C-7.20890625 21.79300781 -6.1209375 21.40242188 -5 21 C-3.33011972 20.34142422 -1.6621035 19.67796327 0 19 C0.0928125 17.081875 0.0928125 17.081875 0.1875 15.125 C0.22230469 14.40570313 0.25710938 13.68640625 0.29296875 12.9453125 C0.19628906 12.30335938 0.09960938 11.66140625 0 11 C-3.79008682 8.47327545 -5.49197342 8.55658755 -10 9 C-12.08614839 9.86888695 -14.021147 10.88664737 -16 11.9765625 C-18.91122466 13.46629075 -21.83450514 14.20862629 -25 15 C-25.33 13.35 -25.66 11.7 -26 10 C-2.86666667 0 -2.86666667 0 0 0 Z " fill="#131313" transform="translate(506,157)"/>
<path d="M0 0 C3.77931616 2.07491867 6.95588415 4.13889228 9 8 C9.40594728 11.24757827 9.26348796 13.33249717 8.0625 16.375 C5.17274978 18.6517729 2.844203 18.39668702 -0.74609375 18.3359375 C-4.78864599 17.73340805 -6.64924465 16.40763459 -9.3125 13.3125 C-11.38736535 9.23961617 -11.31026138 7.34024083 -10 3 C-7.06711891 -0.367382 -4.31560493 -0.60418469 0 0 Z " fill="#F4F4F4" transform="translate(57,117)"/>
<path d="M0 0 C3.37806189 2.48545328 5.65811296 5.18559946 6.4453125 9.36328125 C6.54058246 13.52113436 6.36381034 15.45428449 4 19 C3.01 18.67 2.02 18.34 1 18 C1 14.37 1 10.74 1 7 C-1.31 6.34 -3.62 5.68 -6 5 C-5.94779297 6.68029297 -5.94779297 6.68029297 -5.89453125 8.39453125 C-5.86639161 9.86717251 -5.83909163 11.33982998 -5.8125 12.8125 C-5.78736328 13.55048828 -5.76222656 14.28847656 -5.73632812 15.04882812 C-5.66251797 20.48617601 -5.66251797 20.48617601 -7.30078125 22.98046875 C-10.29301933 24.7758116 -12.6163756 24.46670681 -16 24 C-18.63016161 21.8272578 -20.47336894 20.05326212 -22 17 C-22.06950541 15.45976004 -22.08452357 13.91665012 -22.0625 12.375 C-22.05347656 11.55773437 -22.04445313 10.74046875 -22.03515625 9.8984375 C-22.02355469 9.27195312 -22.01195312 8.64546875 -22 8 C-20.68 7.34 -19.36 6.68 -18 6 C-17.22862616 8.50696497 -17.00832969 10.40815486 -17.0625 13.0625 C-17.25885068 16.19333909 -17.25885068 16.19333909 -15 19 C-13.68 18.67 -12.36 18.34 -11 18 C-11.08701172 16.67935547 -11.08701172 16.67935547 -11.17578125 15.33203125 C-11.54418419 5.84828711 -11.54418419 5.84828711 -8.875 1.6875 C-5.38033454 -0.36371668 -3.96479757 -0.97097083 0 0 Z " fill="#1D1D1D" transform="translate(33,342)"/>
<path d="M0 0 C1.8871875 0.061875 1.8871875 0.061875 3.8125 0.125 C4.1425 1.115 4.4725 2.105 4.8125 3.125 C4.4825 3.785 4.1525 4.445 3.8125 5.125 C2.719375 5.08375 1.62625 5.0425 0.5 5 C-3.27642229 4.80425334 -3.27642229 4.80425334 -6.1875 7.125 C-6.92356499 10.69269552 -6.92356499 10.69269552 -7.1875 14.125 C-6.30707031 13.83625 -5.42664063 13.5475 -4.51953125 13.25 C-3.35808594 12.87875 -2.19664062 12.5075 -1 12.125 C0.14855469 11.75375 1.29710937 11.3825 2.48046875 11 C6.45372141 9.9566136 9.32047221 9.47979879 13.125 11.125 C15.2980761 13.7004976 15.37354903 15.81390458 15.203125 19.125 C14.44159993 23.02400835 12.11206485 25.1839358 9 27.4375 C5.90955745 28.40878195 3.02670305 28.24862319 -0.1875 28.125 C-0.1875 26.805 -0.1875 25.485 -0.1875 24.125 C0.905625 24.021875 1.99875 23.91875 3.125 23.8125 C6.66154021 23.40294702 6.66154021 23.40294702 8.6875 21.875 C10.10285995 19.67332896 10.46448447 17.70031492 10.8125 15.125 C9.37456608 15.43549726 7.9371682 15.7484776 6.5 16.0625 C5.29923828 16.32353516 5.29923828 16.32353516 4.07421875 16.58984375 C1.667099 17.12386159 1.667099 17.12386159 -1.1875 18.125 C-3.90170749 18.45880374 -6.47815594 18.52575714 -9.1875 18.125 C-11.81994154 15.98614125 -12.11032639 14.56874823 -12.6875 11.25 C-12.0121041 7.02877565 -10.1379342 5.14404895 -7.1875 2.125 C-4.09861478 0.06574319 -3.47814073 -0.1140374 0 0 Z " fill="#1C1C1C" transform="translate(423.1875,447.875)"/>
<path d="M0 0 C3.00451656 2.23740595 4.63832235 3.75056813 5.6875 7.375 C4.62623171 11.4271153 1.97877688 14.12926166 -1 17 C-4.45270684 18.72635342 -8.22429757 18.48406441 -12 18 C-14.94599124 15.76818846 -14.96904193 14.21283671 -15.5 10.5625 C-14.8716568 6.08555468 -13.45132666 4.80921938 -10 2 C-6.24952518 -0.50031654 -4.44143734 -0.53603554 0 0 Z " fill="#F4F4F4" transform="translate(476,117)"/>
<path d="M0 0 C3.4375 0.625 3.4375 0.625 5.875 2 C8.30170456 6.07686366 8.07356619 10.00042462 7.4375 14.625 C5.41118421 19.13815789 5.41118421 19.13815789 2.4375 20.625 C-2.73079533 21.1172186 -2.73079533 21.1172186 -5.5625 20.625 C-8.43478895 17.84247008 -8.80210095 15.04140593 -9.0625 11.1875 C-8.93598788 7.89818477 -8.42854324 5.74845791 -6.5 3.0625 C-3.5625 0.625 -3.5625 0.625 0 0 Z " fill="#F7F7F7" transform="translate(223.5625,505.375)"/>
<path d="M0 0 C0.34615998 5.65394631 -0.56574762 9.03006806 -3 14 C-2.26394531 13.39671875 -1.52789062 12.7934375 -0.76953125 12.171875 C0.20628906 11.37265625 1.18210937 10.5734375 2.1875 9.75 C3.15042969 8.96109375 4.11335938 8.1721875 5.10546875 7.359375 C6.53826172 6.19148438 6.53826172 6.19148438 8 5 C8.8971875 4.236875 9.794375 3.47375 10.71875 2.6875 C13 1 13 1 15.3125 1.25 C15.869375 1.4975 16.42625 1.745 17 2 C16.42063175 8.33638191 14.93337939 13.97068452 12.9375 20 C12.65583984 20.87011719 12.37417969 21.74023438 12.08398438 22.63671875 C11.39567574 24.75997589 10.70093339 26.88088417 10 29 C8.68 28.67 7.36 28.34 6 28 C7.23416987 21.17576662 8.8915995 14.60632156 11 8 C10.04738281 8.87785156 9.09476563 9.75570313 8.11328125 10.66015625 C6.8470634 11.79506262 5.58009691 12.92913413 4.3125 14.0625 C3.68666016 14.64322266 3.06082031 15.22394531 2.41601562 15.82226562 C-2.33817272 20.02885112 -2.33817272 20.02885112 -5.95703125 19.87109375 C-6.96830078 19.43990234 -6.96830078 19.43990234 -8 19 C-7.46180924 15.01738837 -6.60237919 11.14416527 -5.625 7.25 C-5.39039062 6.30640625 -5.15578125 5.3628125 -4.9140625 4.390625 C-3.99974337 1.99932881 -3.0059483 0 0 0 Z " fill="#161616" transform="translate(121,469)"/>
<path d="M0 0 C1.04027344 -0.01933594 2.08054687 -0.03867188 3.15234375 -0.05859375 C6.7204451 0.54965977 7.91165612 1.57143575 10.0625 4.4375 C10.0625 5.4275 10.0625 6.4175 10.0625 7.4375 C8.7425 7.4375 7.4225 7.4375 6.0625 7.4375 C6.0625 6.7775 6.0625 6.1175 6.0625 5.4375 C3.0925 5.1075 0.1225 4.7775 -2.9375 4.4375 C-3.2675 6.0875 -3.5975 7.7375 -3.9375 9.4375 C-2.65552734 10.05238281 -2.65552734 10.05238281 -1.34765625 10.6796875 C0.30943359 11.48792969 0.30943359 11.48792969 2 12.3125 C3.10214844 12.84617187 4.20429688 13.37984375 5.33984375 13.9296875 C8.0625 15.4375 8.0625 15.4375 9.0625 17.4375 C9.375 20.3125 9.375 20.3125 9.0625 23.4375 C7.1954009 25.74025556 5.70602259 27.11573871 3.0625 28.4375 C-2.17019006 28.84001462 -5.47690485 28.23833881 -9.9375 25.4375 C-11.9375 22.4375 -11.9375 22.4375 -11.9375 19.4375 C-10.2875 19.4375 -8.6375 19.4375 -6.9375 19.4375 C-6.2775 20.7575 -5.6175 22.0775 -4.9375 23.4375 C-2.2975 23.4375 0.3425 23.4375 3.0625 23.4375 C3.3925 21.7875 3.7225 20.1375 4.0625 18.4375 C3.38703125 18.20675781 2.7115625 17.97601562 2.015625 17.73828125 C-7.53254863 14.24740274 -7.53254863 14.24740274 -9.9375 9.4375 C-9.87469223 6.29711126 -9.59408473 4.3511031 -7.75 1.78515625 C-5.16149404 -0.13948719 -3.19349779 0.00394746 0 0 Z " fill="#191919" transform="translate(290.9375,7.5625)"/>
<path d="M0 0 C0.66 0 1.32 0 2 0 C3.98676371 2.57543444 5 4.21138883 5 7.5 C3.31869963 11.70325093 0.27799627 14.07093739 -3.33203125 16.6953125 C-4.55986328 17.58863281 -4.55986328 17.58863281 -5.8125 18.5 C-6.60269531 19.0465625 -7.39289062 19.593125 -8.20703125 20.15625 C-10.27629105 21.89969094 -10.27629105 21.89969094 -10.26171875 24.71875 C-10.17535156 25.4715625 -10.08898438 26.224375 -10 27 C-11.32 27 -12.64 27 -14 27 C-16.34476551 27.6252708 -18.68060793 28.2863409 -21 29 C-21.33 27.68 -21.66 26.36 -22 25 C-21.01 24.34 -20.02 23.68 -19 23 C-19.165 22.401875 -19.33 21.80375 -19.5 21.1875 C-20 19 -20 19 -20 16 C-19.4225 16.165 -18.845 16.33 -18.25 16.5 C-14.67018419 17.29551462 -12.58570429 17.37067614 -9.45703125 15.390625 C-8.58433594 14.68421875 -7.71164063 13.9778125 -6.8125 13.25 C-5.93207031 12.55390625 -5.05164063 11.8578125 -4.14453125 11.140625 C-1.94024315 8.94035199 -1.37059566 8.01417803 -1 5 C-0.814375 4.0925 -0.62875 3.185 -0.4375 2.25 C-0.293125 1.5075 -0.14875 0.765 0 0 Z " fill="#191919" transform="translate(70,410)"/>
<path d="M0 0 C1.32 0 2.64 0 4 0 C4 0.99 4 1.98 4 3 C6.31 3 8.62 3 11 3 C11 4.32 11 5.64 11 7 C9.68 7.33 8.36 7.66 7 8 C6.67 9.98 6.34 11.96 6 14 C4.68 13.67 3.36 13.34 2 13 C2 11.68 2 10.36 2 9 C-0.60466582 9.47657292 -3.20871714 9.95614719 -5.8125 10.4375 C-6.55048828 10.57220703 -7.28847656 10.70691406 -8.04882812 10.84570312 C-11.11315076 11.41419737 -14.03928953 12.01309651 -17 13 C-18.22520264 16.00847418 -18.22520264 16.00847418 -19 19 C-19.66 19 -20.32 19 -21 19 C-22.43735246 16.12529507 -22.38172649 14.18105412 -22 11 C-18.10676773 6.32812128 -12.75499527 5.69703359 -7 5 C-4.63395548 4.87414657 -2.37082151 4.8969208 0 5 C0 3.35 0 1.7 0 0 Z " fill="#1B1B1B" transform="translate(521,214)"/>
<path d="M0 0 C1.65 0 3.3 0 5 0 C5 1.98 5 3.96 5 6 C6.98 6 8.96 6 11 6 C11.33 6.66 11.66 7.32 12 8 C10.35 8.33 8.7 8.66 7 9 C7.48383642 11.94809646 8.00949149 14.87730097 8.5625 17.8125 C8.69462891 18.64587891 8.82675781 19.47925781 8.96289062 20.33789062 C9.7513215 24.91845584 9.7513215 24.91845584 12.71435547 28.24365234 C14.84572428 29.20858688 14.84572428 29.20858688 18 30 C17.67 30.99 17.34 31.98 17 33 C10.69174041 33.48525074 10.69174041 33.48525074 7.90625 31.53125 C5.25159669 28.00621856 4.61432743 24.52204459 3.75 20.25 C3.57726562 19.45722656 3.40453125 18.66445313 3.2265625 17.84765625 C2.80445352 15.90126485 2.40041729 13.95096936 2 12 C0.68 11.67 -0.64 11.34 -2 11 C-2 9.68 -2 8.36 -2 7 C-1.01 7 -0.02 7 1 7 C0.67 4.69 0.34 2.38 0 0 Z " fill="#1A1A1A" transform="translate(202,6)"/>
<path d="M0 0 C0.99 0.33 1.98 0.66 3 1 C3 3.31 3 5.62 3 8 C4.65 8 6.3 8 8 8 C8 9.32 8 10.64 8 12 C5.69 11.67 3.38 11.34 1 11 C1.020625 12.258125 1.04125 13.51625 1.0625 14.8125 C1.10886083 17.64051087 0.91692961 19.24921116 0 22 C-0.06740865 23.56118428 -0.08514456 25.1250252 -0.0625 26.6875 C-0.05347656 27.49574219 -0.04445313 28.30398437 -0.03515625 29.13671875 C-0.02355469 29.75160156 -0.01195312 30.36648437 0 31 C0.99 31.33 1.98 31.66 3 32 C3 32.99 3 33.98 3 35 C-2.4 35.48 -2.4 35.48 -4.875 33.5 C-8.22465578 26.05632049 -4.91385592 17.47315169 -3 10 C-3.99 10 -4.98 10 -6 10 C-6 8.68 -6 7.36 -6 6 C-4.35 6 -2.7 6 -1 6 C-1.020625 5.195625 -1.04125 4.39125 -1.0625 3.5625 C-1 1 -1 1 0 0 Z " fill="#1A1A1A" transform="translate(318,5)"/>
<path d="M0 0 C2.12559852 2.02191078 3.42189889 3.59875355 5 6 C5.81210937 7.15435547 5.81210937 7.15435547 6.640625 8.33203125 C11 14.63682827 11 14.63682827 11 17 C12.65 16.67 14.3 16.34 16 16 C16 17.32 16 18.64 16 20 C16.31151288 22.33634657 16.64159778 24.67038557 17 27 C15.68 27 14.36 27 13 27 C12.34 26.01 11.68 25.02 11 24 C9.02 24.33 7.04 24.66 5 25 C4.67 24.01 4.34 23.02 4 22 C5.32 21.67 6.64 21.34 8 21 C4.99935973 15.36901124 1.81213639 10.11915459 -2 5 C-3.98 5.33 -5.96 5.66 -8 6 C-8.66 4.68 -9.32 3.36 -10 2 C-6.23500419 -0.5099972 -4.45706394 -0.61476744 0 0 Z " fill="#161616" transform="translate(400,467)"/>
<path d="M0 0 C4.36951053 0.43111306 7.09196015 1.94253548 10.61328125 4.375 C14.398962 7.2498565 14.398962 7.2498565 18.80078125 8.375 C19.13078125 7.715 19.46078125 7.055 19.80078125 6.375 C20.46078125 6.375 21.12078125 6.375 21.80078125 6.375 C22.06890625 7.48875 22.33703125 8.6025 22.61328125 9.75 C23.45887144 13.59340951 23.45887144 13.59340951 26.80078125 15.375 C26.47078125 16.365 26.14078125 17.355 25.80078125 18.375 C23.49078125 18.045 21.18078125 17.715 18.80078125 17.375 C18.14078125 18.365 17.48078125 19.355 16.80078125 20.375 C15.81078125 20.045 14.82078125 19.715 13.80078125 19.375 C14.13078125 17.395 14.46078125 15.415 14.80078125 13.375 C13.10095805 12.21657956 11.39048548 11.07377734 9.67578125 9.9375 C8.72445313 9.29941406 7.773125 8.66132813 6.79296875 8.00390625 C3.70244623 6.32146775 1.27702606 5.74119196 -2.19921875 5.375 C-2.52921875 6.035 -2.85921875 6.695 -3.19921875 7.375 C-4.51921875 7.045 -5.83921875 6.715 -7.19921875 6.375 C-4.46865817 0.52379876 -4.46865817 0.52379876 0 0 Z " fill="#151515" transform="translate(470.19921875,394.625)"/>
<path d="M0 0 C0 1.32 0 2.64 0 4 C-1.32 4.33 -2.64 4.66 -4 5 C-4.05534912 5.82201904 -4.11069824 6.64403809 -4.16772461 7.4909668 C-4.4209439 11.22338221 -4.67916855 14.95543507 -4.9375 18.6875 C-5.02451172 19.98107422 -5.11152344 21.27464844 -5.20117188 22.60742188 C-5.28818359 23.85458984 -5.37519531 25.10175781 -5.46484375 26.38671875 C-5.543396 27.53358154 -5.62194824 28.68044434 -5.70288086 29.86206055 C-5.96600292 32.64094951 -6.391558 35.27872646 -7 38 C-8.32 38 -9.64 38 -11 38 C-11.2633178 7.38626696 -11.2633178 7.38626696 -8.3125 1.8125 C-5.3745222 -0.49023936 -3.64347118 -0.41403082 0 0 Z " fill="#282828" transform="translate(257,495)"/>
<path d="M0 0 C0.99 0.33 1.98 0.66 3 1 C3.390625 6.95703125 3.390625 6.95703125 3 9 C-0.25564084 12.52694424 -4.74569004 13.16487839 -9.25 14.1875 C-9.99507812 14.36474609 -10.74015625 14.54199219 -11.5078125 14.72460938 C-13.33652271 15.15834193 -15.16800779 15.58034597 -17 16 C-17.33 17.65 -17.66 19.3 -18 21 C-19.32 21 -20.64 21 -22 21 C-22 19.68 -22 18.36 -22 17 C-23.65 17 -25.3 17 -27 17 C-27 15.68 -27 14.36 -27 13 C-26.01 13 -25.02 13 -24 13 C-24 10.69 -24 8.38 -24 6 C-23.01 6 -22.02 6 -21 6 C-20.67 7.65 -20.34 9.3 -20 11 C-18.87980469 10.71125 -17.75960938 10.4225 -16.60546875 10.125 C-15.13286011 9.74981309 -13.66020122 9.37482335 -12.1875 9 C-11.44951172 8.80921875 -10.71152344 8.6184375 -9.95117188 8.421875 C-6.89464659 7.64737086 -4.16626522 7 -1 7 C-1.020625 6.030625 -1.04125 5.06125 -1.0625 4.0625 C-1 1 -1 1 0 0 Z " fill="#1B1B1B" transform="translate(27,319)"/>
<path d="M0 0 C0.33 0 0.66 0 1 0 C1.51532599 4.12260794 1.7741038 6.67168276 -0.34765625 10.3125 C-4.83421186 15.8344146 -4.83421186 15.8344146 -8.72265625 16.38671875 C-12.84921788 15.89979431 -16.43163436 14.7567894 -20.3125 13.3125 C-21.04017578 13.06822266 -21.76785156 12.82394531 -22.51757812 12.57226562 C-24.61328125 11.80078125 -24.61328125 11.80078125 -28 10 C-28.98046875 7.29296875 -28.98046875 7.29296875 -29 5 C-26.39417629 4.06934867 -25.35801776 3.85082593 -22.75 4.9375 C-22.1725 5.288125 -21.595 5.63875 -21 6 C-21 6.66 -21 7.32 -21 8 C-18.03 8.495 -18.03 8.495 -15 9 C-15 6.69 -15 4.38 -15 2 C-14.01 1.67 -13.02 1.34 -12 1 C-12 4.3 -12 7.6 -12 11 C-8.52451159 10.46022435 -8.52451159 10.46022435 -5 9 C-3.46853622 5.99405579 -3.46853622 5.99405579 -3 3 C-2.67 3.99 -2.34 4.98 -2 6 C-1.34 6 -0.68 6 0 6 C0 4.02 0 2.04 0 0 Z " fill="#1C1C1C" transform="translate(515,351)"/>
<path d="M0 0 C0.99 0.33 1.98 0.66 3 1 C2.51575187 5.23232866 0.23104037 6.95541633 -2.875 9.6875 C-3.85984375 10.55632812 -4.8446875 11.42515625 -5.859375 12.3203125 C-9.80884086 15.71368961 -13.8285626 19.01763756 -17.8828125 22.28515625 C-19.86206774 23.82726076 -19.86206774 23.82726076 -21 25 C-25.03160191 25.26293056 -26.55892734 25.29404844 -30 23 C-29.67 21.68 -29.34 20.36 -29 19 C-28.05125 19.185625 -27.1025 19.37125 -26.125 19.5625 C-20.95802787 19.5625 -18.21765264 16.00042445 -14.70703125 12.59765625 C-11.04005107 9.07883688 -7.1031045 5.94163842 -3.15234375 2.75 C-1.14403815 1.17822462 -1.14403815 1.17822462 0 0 Z " fill="#1B1B1B" transform="translate(463,96)"/>
<path d="M0 0 C5.94 0 11.88 0 18 0 C17.67 0.66 17.34 1.32 17 2 C13.52674819 3.1577506 10.63932552 3.06866652 7 3 C7 3.66 7 4.32 7 5 C7.68449219 5.25523437 8.36898438 5.51046875 9.07421875 5.7734375 C12.44961726 7.18849108 15.59974038 8.87258566 18.8125 10.625 C19.40998047 10.94984375 20.00746094 11.2746875 20.62304688 11.609375 C22.08337135 12.40379151 23.54187491 13.20155376 25 14 C25 15.65 25 17.3 25 19 C23.68 18.67 22.36 18.34 21 18 C21 19.98 21 21.96 21 24 C20.34 24 19.68 24 19 24 C17.39644899 20.49223216 16.77963136 17.85645121 17 14 C15.948125 13.62875 15.948125 13.62875 14.875 13.25 C11.62316039 11.83615669 8.93861918 9.97907006 6 8 C4.01492052 6.97069953 2.01885749 5.96136071 0 5 C0 3.35 0 1.7 0 0 Z " fill="#0D0D0D" transform="translate(494,333)"/>
<path d="M0 0 C4.44032582 0.53968105 7.63324535 1.62582709 11.51171875 3.8359375 C13.01895508 4.69058594 13.01895508 4.69058594 14.55664062 5.5625 C15.58982422 6.160625 16.62300781 6.75875 17.6875 7.375 C18.73228516 7.96539062 19.77707031 8.55578125 20.85351562 9.1640625 C29.85032243 14.30840535 29.85032243 14.30840535 32 17 C32.25265405 20.09501208 32.39935013 22.20129973 31 25 C30.01 24.67 29.02 24.34 28 24 C27.71898438 23.05866211 27.43796875 22.11732422 27.1484375 21.14746094 C25.6975118 17.17098683 24.34242295 16.53470566 20.625 14.640625 C19.55765625 14.08246094 18.4903125 13.52429688 17.390625 12.94921875 C16.27171875 12.38847656 15.1528125 11.82773438 14 11.25 C11.79028756 10.11204901 9.58188599 8.97154781 7.375 7.828125 C6.39273438 7.3321582 5.41046875 6.83619141 4.3984375 6.32519531 C2 5 2 5 0 3 C0 2.01 0 1.02 0 0 Z " fill="#171717" transform="translate(30,140)"/>
<path d="M0 0 C0 1.32 0 2.64 0 4 C-12.62742113 6.05469886 -25.22694272 6.59048976 -38 7 C-38 5.35 -38 3.7 -38 2 C-34.0350371 1.71105222 -30.06978953 1.42640631 -26.10424805 1.14550781 C-24.10254363 1.00285376 -22.10107316 0.85692894 -20.09960938 0.7109375 C-13.38054364 0.23704873 -6.73570123 -0.11829991 0 0 Z " fill="#1C1C1C" transform="translate(539,237)"/>
<path d="M0 0 C0.99 0.33 1.98 0.66 3 1 C3 2.32 3 3.64 3 5 C2.15179688 5.47308594 1.30359375 5.94617188 0.4296875 6.43359375 C-0.75580747 7.1004986 -1.94065224 7.76855996 -3.125 8.4375 C-3.74938965 8.79005859 -4.3737793 9.14261719 -5.01708984 9.50585938 C-10.28781228 12.51770077 -15.37541198 15.76833887 -20.37939453 19.20483398 C-23.65477529 21.39083023 -24.91896466 22 -29 22 C-29 20.68 -29 19.36 -29 18 C-26.76855469 16.21655273 -26.76855469 16.21655273 -23.671875 14.43359375 C-22.56199219 13.78326172 -21.45210937 13.13292969 -20.30859375 12.46289062 C-19.12272139 11.78718873 -17.93652 11.11206399 -16.75 10.4375 C-14.4505215 9.10730983 -12.15526215 7.76998587 -9.859375 6.43359375 C-8.83295898 5.84634521 -7.80654297 5.25909668 -6.74902344 4.65405273 C-4.01283886 3.09638793 -4.01283886 3.09638793 -1.82128906 1.22290039 C-1.22026367 0.81934326 -0.61923828 0.41578613 0 0 Z " fill="#1B1B1B" transform="translate(57,392)"/>
<path d="M0 0 C2.73482548 1.2934681 5.12436636 2.71957069 7.5390625 4.5390625 C8.19777344 5.03374023 8.85648437 5.52841797 9.53515625 6.03808594 C10.22480469 6.56176758 10.91445313 7.08544922 11.625 7.625 C12.33269531 8.15899414 13.04039062 8.69298828 13.76953125 9.24316406 C19.25822846 13.39967747 24.66878767 17.64275915 30 22 C29.67 22.99 29.34 23.98 29 25 C25.09199597 24.39453459 22.72264347 22.50976114 19.625 20.125 C18.05878906 18.92423828 18.05878906 18.92423828 16.4609375 17.69921875 C15.3063691 16.80066334 14.15277118 15.90085994 13 15 C12.36481445 14.5045166 11.72962891 14.0090332 11.07519531 13.49853516 C7.03914073 10.34617882 3.01576308 7.17815569 -1 4 C-0.67 2.68 -0.34 1.36 0 0 Z " fill="#181818" transform="translate(451,415)"/>
<path d="M0 0 C1.32 0 2.64 0 4 0 C6.25380308 11.59723917 6.60984937 23.22094006 7 35 C5.68 35 4.36 35 3 35 C2.49382065 30.47983634 1.99615563 25.95877401 1.5 21.4375 C1.35691406 20.16068359 1.21382812 18.88386719 1.06640625 17.56835938 C0.93105469 16.32763672 0.79570312 15.08691406 0.65625 13.80859375 C0.53056641 12.67220459 0.40488281 11.53581543 0.27539062 10.36499023 C-0.0086196 6.8946773 -0.04642989 3.48030728 0 0 Z " fill="#151515" transform="translate(234,0)"/>
<path d="M0 0 C-0.165 0.763125 -0.33 1.52625 -0.5 2.3125 C-1.09145396 5.03596236 -1.09145396 5.03596236 -1 8 C-1.33 8.66 -1.66 9.32 -2 10 C-2.33 9.67 -2.66 9.34 -3 9 C-8.34020865 8.45508075 -11.4597934 9.47590183 -16 11.9765625 C-18.91122466 13.46629075 -21.83450514 14.20862629 -25 15 C-25.33 13.35 -25.66 11.7 -26 10 C-2.86666667 0 -2.86666667 0 0 0 Z " fill="#202020" transform="translate(506,157)"/>
<path d="M0 0 C0.66 0 1.32 0 2 0 C2.33 1.32 2.66 2.64 3 4 C3.99 4 4.98 4 6 4 C6.33 2.68 6.66 1.36 7 0 C7.21398437 1.02222656 7.42796875 2.04445313 7.6484375 3.09765625 C8.91615229 7.53465803 11.43488784 10.21095255 14.625 13.4375 C15.140625 13.97826172 15.65625 14.51902344 16.1875 15.07617188 C17.44752438 16.39453072 18.7222836 17.69878046 20 19 C19.67 19.99 19.34 20.98 19 22 C14.66763225 21.52201576 12.58373456 18.95010508 9.625 15.9375 C9.14184326 15.44596436 8.65868652 14.95442871 8.16088867 14.44799805 C4.40212472 10.56299517 1.03971458 6.47620417 -2 2 C-1.34 1.34 -0.68 0.68 0 0 Z " fill="#1E1E1E" transform="translate(76,81)"/>
<path d="M0 0 C2.3737793 0.23144531 2.3737793 0.23144531 5 1 C6.21020508 2.87011719 6.21020508 2.87011719 7.01953125 5.296875 C7.31923828 6.1734375 7.61894531 7.05 7.92773438 7.953125 C8.36569336 9.33757813 8.36569336 9.33757813 8.8125 10.75 C9.12380859 11.6575 9.43511719 12.565 9.75585938 13.5 C11.19909347 17.83921811 12.17764415 21.39046711 12 26 C10.68 26.33 9.36 26.66 8 27 C7.75765625 26.17757812 7.5153125 25.35515625 7.265625 24.5078125 C5.37943793 18.22535863 3.36949478 12.13119386 0.734375 6.12109375 C0 4 0 4 0 0 Z " fill="#212121" transform="translate(179,19)"/>
<path d="M0 0 C0.8971875 0.5259375 0.8971875 0.5259375 1.8125 1.0625 C1.8125 1.7225 1.8125 2.3825 1.8125 3.0625 C0.90628906 3.50980469 0.00007813 3.95710937 -0.93359375 4.41796875 C-2.1642346 5.02829895 -3.39469089 5.63900136 -4.625 6.25 C-5.57983276 6.72276367 -5.57983276 6.72276367 -6.55395508 7.20507812 C-10.95362636 9.39962771 -15.2220574 11.74521198 -19.41796875 14.3125 C-21.1875 15.0625 -21.1875 15.0625 -24.1875 14.0625 C-23.82918465 11.469356 -23.56158571 10.35776089 -21.46923828 8.70629883 C-20.37458252 8.11884888 -20.37458252 8.11884888 -19.2578125 7.51953125 C-18.46246094 7.08576172 -17.66710937 6.65199219 -16.84765625 6.20507812 C-16.01105469 5.76615234 -15.17445313 5.32722656 -14.3125 4.875 C-13.48363281 4.42447266 -12.65476562 3.97394531 -11.80078125 3.50976562 C-2.94431811 -1.26185062 -2.94431811 -1.26185062 0 0 Z " fill="#1E1E1E" transform="translate(497.1875,142.9375)"/>
<path d="M0 0 C1.65 0 3.3 0 5 0 C4.35273851 6.95806099 2.10610154 13.36536392 0 20 C-0.68747247 22.32829074 -1.34743853 24.66165473 -2 27 C-3.32 27 -4.64 27 -6 27 C-5.54465877 20.28371683 -4.03756079 14.40845711 -1.9375 8.015625 C-1.10799461 5.34738266 -0.48853902 2.748032 0 0 Z " fill="#1E1E1E" transform="translate(196,497)"/>
<path d="M0 0 C1.32 0.66 2.64 1.32 4 2 C2.62632018 5.13019544 1.08745744 7.09680767 -1.44140625 9.3828125 C-2.10720703 9.99253906 -2.77300781 10.60226562 -3.45898438 11.23046875 C-4.15314453 11.85566406 -4.84730469 12.48085938 -5.5625 13.125 C-6.94112098 14.37505153 -8.31753669 15.6275408 -9.69140625 16.8828125 C-10.30185791 17.43340332 -10.91230957 17.98399414 -11.54125977 18.55126953 C-13.11119075 19.95613819 -13.11119075 19.95613819 -14 22 C-14.99 22 -15.98 22 -17 22 C-17.66064453 20.19116211 -17.66064453 20.19116211 -18 18 C-16.02426587 15.64893644 -14.10816632 13.64124524 -11.875 11.5625 C-11.29234375 11.00240234 -10.7096875 10.44230469 -10.109375 9.86523438 C-8.96001269 8.76097036 -7.80611845 7.6614015 -6.64746094 6.56689453 C-4.38906984 4.41894639 -2.19340465 2.21409715 0 0 Z " fill="#1B1B1B" transform="translate(88,432)"/>
<path d="M0 0 C3 0 3 0 4.47265625 1.43359375 C4.99730469 2.09488281 5.52195312 2.75617188 6.0625 3.4375 C9.66387954 7.78852292 13.71639823 11.32387097 18.05859375 14.921875 C20 17 20 17 20 21 C16.33220733 21 15.88009248 20.30433189 13.27734375 17.859375 C12.57416016 17.20066406 11.87097656 16.54195313 11.14648438 15.86328125 C10.41751953 15.16589844 9.68855469 14.46851563 8.9375 13.75 C7.83825195 12.72712891 7.83825195 12.72712891 6.71679688 11.68359375 C0.39289665 5.70231071 0.39289665 5.70231071 -1 2 C-0.67 1.34 -0.34 0.68 0 0 Z " fill="#1A1A1A" transform="translate(434,434)"/>
<path d="M0 0 C2.97600728 0.34338546 4.70615811 1.42635961 7.3125 3 C10.89741447 5.14163722 13.86110442 5.66213097 18 6 C13.375 10.875 13.375 10.875 10 12 C7.80859375 11.765625 7.80859375 11.765625 5.4375 11.25 C4.65246094 11.09015625 3.86742188 10.9303125 3.05859375 10.765625 C1 10 1 10 -1 7 C-1.1875 3.875 -1.1875 3.875 -1 1 C-0.67 0.67 -0.34 0.34 0 0 Z " fill="#E8E8E8" transform="translate(94,461)"/>
<path d="M0 0 C0.72445313 0.29132813 1.44890625 0.58265625 2.1953125 0.8828125 C3.93576963 1.57608651 5.6799525 2.26017475 7.4296875 2.9296875 C11.39996866 4.46452463 15.20775938 6.01402765 18.875 8.1875 C21.39774195 9.65069033 23.1664838 10.54663741 26 11 C25.67 12.65 25.34 14.3 25 16 C20.26573649 14.52695516 15.85261039 12.66305228 11.375 10.5625 C10.39273437 10.11293945 10.39273437 10.11293945 9.390625 9.65429688 C2.4204475 6.4020177 2.4204475 6.4020177 0 4 C0 2.68 0 1.36 0 0 Z " fill="#1D1D1D" transform="translate(478,372)"/>
<path d="M0 0 C0.66 0.66 1.32 1.32 2 2 C1.8984375 4.4296875 1.8984375 4.4296875 1 7 C-0.9609375 8.6953125 -0.9609375 8.6953125 -3.375 10.125 C-6.41618467 11.95763571 -8.44013101 13.44013101 -11 16 C-11.66 13.03 -12.32 10.06 -13 7 C-12.01 7 -11.02 7 -10 7 C-9.9175 6.401875 -9.835 5.80375 -9.75 5.1875 C-8.14321647 0.50104804 -4.66005356 -0.61316494 0 0 Z " fill="#EAEAEA" transform="translate(160,32)"/>
<path d="M0 0 C0 0.99 0 1.98 0 3 C-3.57344747 4.87369606 -7.16014746 6.72045692 -10.75 8.5625 C-12.27367187 9.36204102 -12.27367187 9.36204102 -13.828125 10.17773438 C-14.8078125 10.67724609 -15.7875 11.17675781 -16.796875 11.69140625 C-17.69760742 12.15748291 -18.59833984 12.62355957 -19.52636719 13.10375977 C-22.22974834 14.08324182 -23.35853389 14.01615584 -26 13 C-26 12.01 -26 11.02 -26 10 C-22.23690862 8.12980635 -18.46341175 6.2816544 -14.6875 4.4375 C-13.0797168 3.63795898 -13.0797168 3.63795898 -11.43945312 2.82226562 C-9.89741211 2.07299805 -9.89741211 2.07299805 -8.32421875 1.30859375 C-7.37635498 0.84251709 -6.42849121 0.37644043 -5.4519043 -0.10375977 C-3 -1 -3 -1 0 0 Z " fill="#181818" transform="translate(48,371)"/>
<path d="M0 0 C4.00366985 2.21217265 7.16162692 4.81949706 10.5 7.9375 C13.90346594 11.10673865 17.33367436 14.13734357 21 17 C20.67 17.99 20.34 18.98 20 20 C16.85743719 19.41034156 15.0727534 18.49552651 12.6875 16.3828125 C12.08679688 15.85816406 11.48609375 15.33351563 10.8671875 14.79296875 C10.25101563 14.24253906 9.63484375 13.69210938 9 13.125 C7.77175704 12.04322116 6.54261467 10.9624625 5.3125 9.8828125 C4.74015625 9.37911133 4.1678125 8.87541016 3.578125 8.35644531 C1.782046 6.81266206 -0.07353674 5.37742123 -2 4 C-1.34 2.68 -0.68 1.36 0 0 Z " fill="#171717" transform="translate(64,94)"/>
<path d="M0 0 C1.98 0.66 3.96 1.32 6 2 C6.25002209 3.74714233 6.47423194 5.49799141 6.6875 7.25 C6.81511719 8.22453125 6.94273437 9.1990625 7.07421875 10.203125 C6.98608373 13.52442355 6.37347633 14.7128319 4 17 C0.8125 17.25 0.8125 17.25 -2 17 C-2.04254356 15.00045254 -2.04080783 12.99958364 -2 11 C-1.67 10.67 -1.34 10.34 -1 10 C-0.76712992 8.31816052 -0.58735834 6.6287584 -0.4375 4.9375 C-0.35371094 4.01839844 -0.26992188 3.09929687 -0.18359375 2.15234375 C-0.12300781 1.44207031 -0.06242187 0.73179687 0 0 Z " fill="#ECECEC" transform="translate(505,345)"/>
<path d="M0 0 C1.32 0 2.64 0 4 0 C4 9.24 4 18.48 4 28 C2.68 28 1.36 28 0 28 C0 18.76 0 9.52 0 0 Z " fill="#0D0D0D" transform="translate(263,6)"/>
<path d="M0 0 C0.33 0.33 0.66 0.66 1 1 C0.90982004 3.19050021 0.75333792 5.378466 0.5625 7.5625 C0.46066406 8.76003906 0.35882813 9.95757812 0.25390625 11.19140625 C0.17011719 12.11824219 0.08632813 13.04507812 0 14 C-2.875 13.6875 -2.875 13.6875 -6 13 C-8.53686376 9.19470436 -8.59355135 6.46090938 -8 2 C-5.87228278 -1.69550885 -3.80143151 -1.20045206 0 0 Z " fill="#E9E9E9" transform="translate(500,346)"/>
<path d="M0 0 C1.54586876 3.09173752 1.29359521 5.59429552 1 9 C-0.625 11.4375 -0.625 11.4375 -3 13 C-6.14522722 13.31452272 -8.15916359 13.42041821 -11 12 C-10.39761486 6.57853378 -7.93302995 4.59190701 -3.875 1.25 C-2 0 -2 0 0 0 Z " fill="#ECECEC" transform="translate(165,40)"/>
<path d="M0 0 C3.9489494 0.46458228 5.51058441 1.46188598 8.1875 4.375 C8.5625 7.0625 8.5625 7.0625 8.1875 9.375 C7.1875 10.375 7.1875 10.375 4.5 10.6875 C0.35574138 10.29653221 -1.67179868 9.0670297 -4.8125 6.375 C-4.8125 1.74178579 -4.64983411 0.61997788 0 0 Z " fill="#EDEDED" transform="translate(103.8125,452.625)"/>
<path d="M0 0 C5 1 5 1 6.8125 2.125 C8.72950563 5.15185099 8.42793633 7.5153756 8 11 C6.25 13.4375 6.25 13.4375 4 15 C2.68 15 1.36 15 0 15 C0 10.05 0 5.1 0 0 Z " fill="#EAEAEA" transform="translate(519,269)"/>
<path d="M0 0 C1.32 0 2.64 0 4 0 C3.34 5.28 2.68 10.56 2 16 C0.35 16 -1.3 16 -3 16 C-3.24222254 11.88221684 -2.36905536 8.86556807 -1 5 C-0.63893903 3.33911955 -0.29537827 1.67381019 0 0 Z " fill="#292929" transform="translate(12,214)"/>
<path d="M0 0 C4.97209562 1.76429199 9.43438061 4.3939166 14 7 C13.67 8.32 13.34 9.64 13 11 C9.34435091 10.31238981 6.48132728 8.74550455 3.25 6.9375 C2.26515625 6.38964844 1.2803125 5.84179688 0.265625 5.27734375 C-0.85585938 4.64505859 -0.85585938 4.64505859 -2 4 C-1.34 2.68 -0.68 1.36 0 0 Z " fill="#242424" transform="translate(388,48)"/>
<path d="M0 0 C0 1.32 0 2.64 0 4 C-2.10063576 4.69821417 -4.20565737 5.38324472 -6.3125 6.0625 C-7.48425781 6.44535156 -8.65601563 6.82820312 -9.86328125 7.22265625 C-13 8 -13 8 -16 7 C-15.67 5.68 -15.34 4.36 -15 3 C-12.87562952 2.49733206 -10.75048274 1.9979439 -8.625 1.5 C-7.44164062 1.2215625 -6.25828125 0.943125 -5.0390625 0.65625 C-2 0 -2 0 0 0 Z " fill="#1F1F1F" transform="translate(337,509)"/>
<path d="M0 0 C3.34243648 1.89404734 3.97997149 2.94091591 5.25 6.6875 C5.4975 7.780625 5.745 8.87375 6 10 C6.66 10 7.32 10 8 10 C7.67 11.65 7.34 13.3 7 15 C3.98425729 13.96008872 3.02008949 13.03085171 1.25 10.3125 C-0.13220349 6.64966075 -0.23295137 3.88252283 0 0 Z " fill="#232323" transform="translate(502,273)"/>
<path d="M0 0 C1.67542976 0.28604898 3.34385343 0.61781233 5 1 C5 2.65 5 4.3 5 6 C3.35 6 1.7 6 0 6 C-0.38218767 4.34385343 -0.71395102 2.67542976 -1 1 C-0.67 0.67 -0.34 0.34 0 0 Z " fill="#393939" transform="translate(188,528)"/>
<path d="M0 0 C-0.66 1.32 -1.32 2.64 -2 4 C-4.31 4 -6.62 4 -9 4 C-9 2.68 -9 1.36 -9 0 C-2.25 -1.125 -2.25 -1.125 0 0 Z " fill="#222222" transform="translate(432,472)"/>
<path d="M0 0 C1.32 0 2.64 0 4 0 C4.33 1.65 4.66 3.3 5 5 C3.35 5.33 1.7 5.66 0 6 C-1.125 2.25 -1.125 2.25 0 0 Z " fill="#272727" transform="translate(469,89)"/>
<path d="M0 0 C2.0625 0.4375 2.0625 0.4375 4 1 C3.67 2.65 3.34 4.3 3 6 C1.35 5.67 -0.3 5.34 -2 5 C-1.125 1.125 -1.125 1.125 0 0 Z " fill="#2D2D2D" transform="translate(56,87)"/>
<path d="M0 0 C2.0625 0.4375 2.0625 0.4375 4 1 C3.67 2.65 3.34 4.3 3 6 C1.35 5.67 -0.3 5.34 -2 5 C-1.125 1.125 -1.125 1.125 0 0 Z " fill="#2C2C2C" transform="translate(177,9)"/>
<path d="M0 0 C2.0625 0.4375 2.0625 0.4375 4 1 C3.67 2.65 3.34 4.3 3 6 C1.68 5.67 0.36 5.34 -1 5 C-1 1 -1 1 0 0 Z " fill="#242424" transform="translate(64,455)"/>
<path d="M0 0 C2.0625 0.4375 2.0625 0.4375 4 1 C4 2.65 4 4.3 4 6 C2.35 6 0.7 6 -1 6 C-1.042721 4.33388095 -1.04063832 2.66617115 -1 1 C-0.67 0.67 -0.34 0.34 0 0 Z " fill="#232323" transform="translate(22,134)"/>
<path d="M0 0 C2.475 0.495 2.475 0.495 5 1 C4.67 2.65 4.34 4.3 4 6 C2.68 5.67 1.36 5.34 0 5 C0 3.35 0 1.7 0 0 Z " fill="#202020" transform="translate(457,457)"/>
<path d="M0 0 C1.65 0 3.3 0 5 0 C4.67 1.65 4.34 3.3 4 5 C2.35 4.67 0.7 4.34 -1 4 C-0.67 2.68 -0.34 1.36 0 0 Z " fill="#222222" transform="translate(508,387)"/>
<path d="M0 0 C2.475 0.495 2.475 0.495 5 1 C4.67 2.65 4.34 4.3 4 6 C2.68 5.67 1.36 5.34 0 5 C0 3.35 0 1.7 0 0 Z " fill="#222222" transform="translate(502,137)"/>
<path d="M0 0 C1.98 0.495 1.98 0.495 4 1 C3.67 2.65 3.34 4.3 3 6 C1.68 5.67 0.36 5.34 -1 5 C-0.67 3.35 -0.34 1.7 0 0 Z " fill="#1C1C1C" transform="translate(14,384)"/>
<path d="M0 0 C1.65 0 3.3 0 5 0 C4.67 1.65 4.34 3.3 4 5 C2.68 5 1.36 5 0 5 C0 3.35 0 1.7 0 0 Z " fill="#131313" transform="translate(245,538)"/>
<path d="M0 0 C0.66 0 1.32 0 2 0 C2 2.31 2 4.62 2 7 C1.01 7 0.02 7 -1 7 C-0.67 4.69 -0.34 2.38 0 0 Z " fill="#DDDDDD" transform="translate(1,325)"/>
</svg>
